<?xml version="1.0" standalone="no"?><!DOCTYPE svg PUBLIC "-//W3C//DTD SVG 1.1//EN" "http://www.w3.org/Graphics/SVG/1.1/DTD/svg11.dtd"><svg t="1564981390184" class="icon" viewBox="0 0 1024 1024" version="1.1" xmlns="http://www.w3.org/2000/svg" p-id="2738" width="32" height="32" xmlns:xlink="http://www.w3.org/1999/xlink"><defs><style type="text/css"></style></defs><path d="M312.656 430.628l-44.558 52.122v-52.122H77.612v523.18h119.614v-7.828c0-34.416 28-62.416 62.416-62.416s62.416 28 62.416 62.416v7.828h432.112v-523.18H312.656z m425.858 507.524H337.328c-3.94-39.388-37.276-70.244-77.686-70.244s-73.746 30.856-77.686 70.244H93.268V446.286h159.172v78.872l67.432-78.872h418.642v491.866z" fill="#4A555F" p-id="2739"></path><path d="M295.65 462.568l-35.384 41.384v-41.384H109.602v459.302h58.45l2.452-6.994c13.308-37.836 49.162-63.25 89.136-63.25 40.028 0 75.828 25.416 89.084 63.25l2.452 6.994h371.054V462.568h-426.58z" fill="#FFD452" p-id="2740"></path><path d="M931.48 599.862h-192.956v353.956h67.498v-7.828c0-34.412 27.994-62.406 62.406-62.406 34.406 0 62.4 27.994 62.4 62.406v7.828h69.576v-157.854l-68.924-196.102z m53.268 338.298h-38.652c-3.944-39.38-37.27-70.234-77.67-70.234s-73.73 30.854-77.674 70.234H754.18V615.518h166.21l64.358 183.116v139.526zM259.632 867.916c-43.034 0-78.042 35.01-78.042 78.042 0 43.032 35.008 78.042 78.042 78.042s78.042-35.01 78.042-78.042c0-43.032-35.008-78.042-78.042-78.042z m0 140.428c-34.4 0-62.386-27.988-62.386-62.386s27.984-62.386 62.386-62.386 62.386 27.986 62.386 62.386-27.986 62.386-62.386 62.386z" fill="#4A555F" p-id="2741"></path><path d="M868.432 867.916c-43.034 0-78.042 35.01-78.042 78.042 0 43.032 35.008 78.042 78.042 78.042s78.042-35.01 78.042-78.042c0-43.032-35.008-78.042-78.042-78.042z m0 140.428c-34.402 0-62.386-27.988-62.386-62.386s27.984-62.386 62.386-62.386c34.4 0 62.386 27.986 62.386 62.386s-27.984 62.386-62.386 62.386z" fill="#4A555F" p-id="2742"></path><path d="M868.434 899.872c-25.414 0-46.088 20.674-46.088 46.086 0 25.414 20.674 46.09 46.088 46.09s46.088-20.676 46.088-46.09c0-25.414-20.676-46.086-46.088-46.086zM259.628 899.872c-25.414 0-46.088 20.674-46.088 46.086 0 25.414 20.674 46.09 46.088 46.09s46.09-20.676 46.09-46.09c0-25.414-20.676-46.086-46.09-46.086zM929.238 753.064l-29.154-84.584a11.172 11.172 0 0 0-10.562-7.53h-88.808a11.172 11.172 0 0 0-11.172 11.172v84.584a11.172 11.172 0 0 0 11.172 11.172h117.962c7.672-0.002 13.062-7.558 10.562-14.814z" fill="#F58E6F" p-id="2743"></path><path d="M783.576 804.234h41.5v15.656h-41.5zM742.004 0H355.598c-56.882 0-103.156 46.278-103.156 103.16v421.998l129.842-151.902h359.722c56.882 0 103.162-46.278 103.162-103.16V103.16C845.166 46.278 798.886 0 742.004 0z m87.506 270.096c0 48.25-39.252 87.504-87.506 87.504H375.066l-106.97 125.146V103.16c0-48.25 39.252-87.504 87.5-87.504h386.408c48.252 0 87.506 39.252 87.506 87.504v166.936z" fill="#4A555F" p-id="2744"></path><path d="M742.002 33.922H355.598c-38.178 0-69.238 31.06-69.238 69.238v330.104l80.29-93.93h375.352c38.18 0 69.24-31.06 69.24-69.238V103.16c0.002-38.178-31.058-69.238-69.24-69.238z" fill="#71CCE0" p-id="2745" data-spm-anchor-id="a313x.7781069.0.i3"></path><path d="M364.624 129.434v110.048h15.656V145.09h58.37v-15.656z" fill="#4A555F" p-id="2746"></path><path d="M372.452 177.25h66.198v15.656h-66.198zM739.87 145.09v-15.656h-74.022v111.286h74.022v-15.656h-58.366V145.09z" fill="#4A555F" p-id="2747"></path><path d="M673.678 177.25h66.192v15.656h-66.192zM641.31 145.09v-15.656h-74.026v111.286h74.026v-15.656H582.94V145.09z" fill="#4A555F" p-id="2748"></path><path d="M575.112 177.25h66.198v15.656h-66.198zM514.536 192.906c17.5 0 31.736-14.236 31.736-31.736s-14.234-31.736-31.736-31.736h-51.744v47.814h-3.398l3.398 3.024v59.208h15.656V194.206l54.792 48.75 10.408-11.696-43.108-38.354h13.996z m-36.088-47.816h36.088c8.868 0 16.08 7.214 16.08 16.08s-7.212 16.08-16.08 16.08h-36.088v-32.16zM23.596 653.122h453.848v15.656H23.596zM329.846 706.586h211.028v15.656H329.846zM169.964 769.01h338.802v15.656H169.964zM251.38 591.97h183.488v15.656H251.38z" fill="#4A555F" p-id="2749"></path></svg>